<svg width="102" height="256" viewBox="0 0 102 256" fill="none" xmlns="http://www.w3.org/2000/svg">
<path d="M67.3558 50.1631V255.387H0.454834V50.1631H67.3558Z" fill="#375A64"/>
<path d="M67.1052 29.5185V50.1632H17.0447V29.5185H67.1052Z" fill="#2B454E"/>
<path d="M25.4923 32.7035V46.9781H21.2129V32.7035H25.4923Z" fill="#375A64"/>
<path d="M32.9816 32.7035V46.9781H28.7021V32.7035H32.9816Z" fill="#375A64"/>
<path d="M40.4703 32.7035V46.9781H36.1909V32.7035H40.4703Z" fill="#375A64"/>
<path d="M47.959 32.7035V46.9781H43.6796V32.7035H47.959Z" fill="#375A64"/>
<path d="M55.4482 32.7035V46.9781H51.1688V32.7035H55.4482Z" fill="#375A64"/>
<path d="M62.937 32.7035V46.9781H58.6576V32.7035H62.937Z" fill="#375A64"/>
<path d="M89.8692 29.5185V50.1632H67.1052V29.5185H89.8692Z" fill="#375A64"/>
<path d="M73.9371 32.7035V46.9781H70.2969V32.7035H73.9371Z" fill="#2B454E"/>
<path d="M80.3073 32.7035V46.9781H76.6671V32.7035H80.3073Z" fill="#2B454E"/>
<path d="M86.6779 32.7035V46.9781H83.0377V32.7035H86.6779Z" fill="#2B454E"/>
<path d="M101.156 50.1631V255.387H67.1056V50.1631H101.156Z" fill="#2B454E"/>
<path d="M28.0718 19.0578V29.5182H26.54V19.0578H28.0718Z" fill="#1A2E35"/>
<path d="M57.6106 19.0578V29.5182H56.0789V19.0578H57.6106Z" fill="#1A2E35"/>
<path d="M64.3955 0.766975V19.0581H19.7546V0.766975H64.3955Z" fill="#FFC800"/>
<path d="M26.4975 64.2976V83.1884H14.1489V64.2976H26.4975Z" fill="#1A2E35"/>
<path d="M51.6336 64.2977V83.1885H39.285V64.2977H51.6336Z" fill="#1A2E35"/>
<path d="M26.4975 94.0671V112.958H14.1489V94.0671H26.4975Z" fill="#1A2E35"/>
<path d="M51.6336 94.0671V112.958H39.285V94.0671H51.6336Z" fill="#1A2E35"/>
<path d="M26.4975 123.836V142.727H14.1489V123.836H26.4975Z" fill="#1A2E35"/>
<path d="M51.6336 123.836V142.727H39.285V123.836H51.6336Z" fill="#1A2E35"/>
<path d="M26.4975 153.606V172.497H14.1489V153.606H26.4975Z" fill="#1A2E35"/>
<path d="M51.6336 153.606V172.497H39.285V153.606H51.6336Z" fill="#1A2E35"/>
<path d="M26.4975 183.375V202.266H14.1489V183.375H26.4975Z" fill="#1A2E35"/>
<path d="M51.6336 183.375V202.266H39.285V183.375H51.6336Z" fill="#1A2E35"/>
<path d="M26.4975 213.144V232.035H14.1489V213.144H26.4975Z" fill="#1A2E35"/>
<path d="M51.6336 213.144V232.035H39.285V213.144H51.6336Z" fill="#1A2E35"/>
<path d="M80.4567 64.2976V83.1884H73.3602V64.2976H80.4567Z" fill="#1A2E35"/>
<path d="M94.9014 64.2977V83.1885H87.8049V64.2977H94.9014Z" fill="#1A2E35"/>
<path d="M80.4567 94.0671V112.958H73.3602V94.0671H80.4567Z" fill="#1A2E35"/>
<path d="M94.9014 94.0671V112.958H87.8049V94.0671H94.9014Z" fill="#1A2E35"/>
<path d="M80.4567 123.836V142.727H73.3602V123.836H80.4567Z" fill="#1A2E35"/>
<path d="M94.9014 123.836V142.727H87.8049V123.836H94.9014Z" fill="#1A2E35"/>
<path d="M80.4567 153.606V172.497H73.3602V153.606H80.4567Z" fill="#1A2E35"/>
<path d="M94.9014 153.606V172.497H87.8049V153.606H94.9014Z" fill="#1A2E35"/>
<path d="M80.4567 183.375V202.266H73.3602V183.375H80.4567Z" fill="#1A2E35"/>
<path d="M94.9014 183.375V202.266H87.8049V183.375H94.9014Z" fill="#1A2E35"/>
<path d="M80.4567 213.144V232.035H73.3602V213.144H80.4567Z" fill="#1A2E35"/>
<path d="M94.9014 213.144V232.035H87.8049V213.144H94.9014Z" fill="#1A2E35"/>
</svg>
