<svg width="202" height="233" viewBox="0 0 202 233" fill="none" xmlns="http://www.w3.org/2000/svg">
<path d="M120.285 38.7361V232.911H81.8416V38.7361H120.285Z" fill="#CB9F00"/>
<path d="M122.583 32.3726V38.7363H81.8413V32.3726H122.583Z" fill="#FFC800"/>
<path d="M116.385 22.4386V32.3726H81.8416V22.4386H116.385Z" fill="#CB9F00"/>
<path d="M108.269 0.527016V22.439H81.8416V0.527016H108.269Z" fill="#A38107"/>
<g opacity="0.2">
<path d="M90.7416 46.0963V66.5197H85.5266V46.0963H90.7416ZM90.7416 73.9199V94.3437H85.5266V73.9199H90.7416ZM90.7416 101.744V122.167H85.5266V101.744H90.7416ZM90.7416 129.568V149.991H85.5266V129.568H90.7416ZM90.7416 157.392V177.815H85.5266V157.392H90.7416ZM90.7416 185.215V205.639H85.5266V185.215H90.7416ZM99.3611 46.0963V66.5197H94.1462V46.0963H99.3611ZM99.3611 73.9199V94.3437H94.1462V73.9199H99.3611ZM99.3611 101.744V122.167H94.1462V101.744H99.3611ZM99.3611 129.568V149.991H94.1462V129.568H99.3611ZM99.3611 157.392V177.815H94.1462V157.392H99.3611ZM99.3611 185.215V205.639H94.1462V185.215H99.3611ZM107.98 46.0963V66.5197H102.765V46.0963H107.98ZM107.98 73.9199V94.3437H102.765V73.9199H107.98ZM107.98 101.744V122.167H102.765V101.744H107.98ZM107.98 129.568V149.991H102.765V129.568H107.98ZM107.98 157.392V177.815H102.765V157.392H107.98ZM107.98 185.215V205.639H102.765V185.215H107.98ZM116.6 46.0963V66.5197H111.384V46.0963H116.6ZM116.6 73.9199V94.3437H111.384V73.9199H116.6ZM116.6 101.744V122.167H111.384V101.744H116.6ZM116.6 129.568V149.991H111.384V129.568H116.6ZM116.6 157.392V177.815H111.384V157.392H116.6ZM116.6 185.215V205.639H111.384V185.215H116.6Z" fill="black"/>
</g>
<path d="M81.8416 38.7361V232.911H3.04065V38.7361H81.8416Z" fill="#FFC800"/>
<path d="M81.8416 22.4385V32.3725H6.81531V22.4385H81.8416Z" fill="#FFC800"/>
<path d="M82.2944 0.527016V22.439H25.8387V0.527016H82.2944Z" fill="#CB9F00"/>
<path d="M81.8416 32.3726V38.7363H0.682129V32.3726H81.8416Z" fill="#FFC800"/>
<g opacity="0.2">
<path d="M81.8416 32.3726V38.7363H0.682129V32.3726H81.8416Z" fill="black"/>
</g>
<g opacity="0.2">
<path d="M21.2705 46.0963V66.5196H10.5742V46.0963H21.2705ZM21.2705 73.9199V94.3437H10.5742V73.9199H21.2705ZM21.2705 101.744V122.167H10.5742V101.744H21.2705ZM21.2705 129.568V149.991H10.5742V129.568H21.2705ZM21.2705 157.392V177.815H10.5742V157.392H21.2705ZM21.2705 185.215V205.639H10.5742V185.215H21.2705ZM38.9495 46.0963V66.5196H28.2532V46.0963H38.9495ZM38.9495 73.9199V94.3437H28.2532V73.9199H38.9495ZM38.9495 101.744V122.167H28.2532V101.744H38.9495ZM38.9495 129.568V149.991H28.2532V129.568H38.9495ZM38.9495 157.392V177.815H28.2532V157.392H38.9495ZM38.9495 185.215V205.639H28.2532V185.215H38.9495ZM56.6285 46.0963V66.5196H45.9322V46.0963H56.6285ZM56.6285 73.9199V94.3437H45.9322V73.9199H56.6285ZM56.6285 101.744V122.167H45.9322V101.744H56.6285ZM56.6285 129.568V149.991H45.9322V129.568H56.6285ZM56.6285 157.392V177.815H45.9322V157.392H56.6285ZM56.6285 185.215V205.639H45.9322V185.215H56.6285ZM74.3075 46.0963V66.5196H63.6112V46.0963H74.3075ZM74.3075 73.9199V94.3437H63.6112V73.9199H74.3075ZM74.3075 101.744V122.167H63.6112V101.744H74.3075ZM74.3075 129.568V149.991H63.6112V129.568H74.3075ZM74.3075 157.392V177.815H63.6112V157.392H74.3075ZM74.3075 185.215V205.639H63.6112V185.215H74.3075Z" fill="black"/>
</g>
<g opacity="0.3">
<path d="M56.6287 213.666V232.911H28.2534V213.666H56.6287Z" fill="black"/>
</g>
<path d="M199.154 121.932V232.658H160.711V121.932H199.154Z" fill="#CB9F00"/>
<path d="M201.453 115.569V121.933H160.711V115.569H201.453Z" fill="#FFC800"/>
<path d="M195.254 105.635V115.569H160.711V105.635H195.254Z" fill="#CB9F00"/>
<path d="M169.611 129.293V149.716H164.396V129.293H169.611Z" fill="#9E7800"/>
<path d="M169.611 157.116V177.54H164.396V157.116H169.611Z" fill="#9E7800"/>
<path d="M169.611 184.94V205.364H164.396V184.94H169.611Z" fill="#9E7800"/>
<path d="M178.231 129.293V149.716H173.016V129.293H178.231Z" fill="#9E7800"/>
<path d="M178.231 157.116V177.54H173.016V157.116H178.231Z" fill="#9E7800"/>
<path d="M178.231 184.94V205.364H173.016V184.94H178.231Z" fill="#9E7800"/>
<path d="M186.85 129.293V149.716H181.635V129.293H186.85Z" fill="#9E7800"/>
<path d="M186.85 157.116V177.54H181.635V157.116H186.85Z" fill="#9E7800"/>
<path d="M186.85 184.94V205.364H181.635V184.94H186.85Z" fill="#9E7800"/>
<path d="M195.47 129.293V149.716H190.255V129.293H195.47Z" fill="#9E7800"/>
<path d="M195.47 157.116V177.54H190.255V157.116H195.47Z" fill="#9E7800"/>
<path d="M195.47 184.94V205.364H190.255V184.94H195.47Z" fill="#9E7800"/>
<path d="M160.711 121.932V232.658H81.9108V121.932H160.711Z" fill="#FFC800"/>
<path d="M160.712 105.635V115.569H85.6853V105.635H160.712Z" fill="#FFC800"/>
<path d="M160.712 115.569V121.933H79.552V115.569H160.712Z" fill="#CB9F00"/>
<path d="M100.141 130.085V150.508H89.4446V130.085H100.141Z" fill="#B28B00"/>
<path d="M100.141 157.116V177.54H89.4446V157.116H100.141Z" fill="#B28B00"/>
<path d="M100.141 184.94V205.364H89.4446V184.94H100.141Z" fill="#B28B00"/>
<path d="M117.82 130.085V150.508H107.124V130.085H117.82Z" fill="#B28B00"/>
<path d="M117.82 157.116V177.54H107.124V157.116H117.82Z" fill="#B28B00"/>
<path d="M117.82 184.94V205.364H107.124V184.94H117.82Z" fill="#B28B00"/>
<path d="M135.498 130.085V150.508H124.802V130.085H135.498Z" fill="#B28B00"/>
<path d="M135.498 157.116V177.54H124.802V157.116H135.498Z" fill="#B28B00"/>
<path d="M135.498 184.94V205.364H124.802V184.94H135.498Z" fill="#B28B00"/>
<path d="M153.177 130.085V150.508H142.481V130.085H153.177Z" fill="#B28B00"/>
<path d="M153.177 157.908V178.332H142.481V157.908H153.177Z" fill="#B28B00"/>
<path d="M153.177 185.732V206.156H142.481V185.732H153.177Z" fill="#B28B00"/>
</svg>
