<svg width="98" height="279" viewBox="0 0 98 279" fill="none" xmlns="http://www.w3.org/2000/svg">
<path d="M97.0696 15.6097V278.888H61.2853V15.6097H97.0696Z" fill="#2B454E"/>
<path d="M97.0696 30.3568V33.1237H61.2853V30.3568H97.0696Z" fill="#375A64"/>
<path d="M71.5598 41.2571V56.6501H64.973V41.2571H71.5598Z" fill="#1A2E35"/>
<path d="M71.5598 60.6798V76.0728H64.973V60.6798H71.5598Z" fill="#1A2E35"/>
<path d="M71.5598 80.1028V95.4958H64.973V80.1028H71.5598Z" fill="#1A2E35"/>
<path d="M71.5598 99.5142V114.907H64.973V99.5142H71.5598Z" fill="#1A2E35"/>
<path d="M71.5598 118.937V134.33H64.973V118.937H71.5598Z" fill="#1A2E35"/>
<path d="M71.5598 138.36V153.753H64.973V138.36H71.5598Z" fill="#1A2E35"/>
<path d="M71.5598 157.772V173.165H64.973V157.772H71.5598Z" fill="#1A2E35"/>
<path d="M71.5598 177.194V192.587H64.973V177.194H71.5598Z" fill="#1A2E35"/>
<path d="M71.5598 196.617V212.01H64.973V196.617H71.5598Z" fill="#1A2E35"/>
<path d="M71.5598 216.029V231.422H64.973V216.029H71.5598Z" fill="#1A2E35"/>
<path d="M71.5598 235.451V250.844H64.973V235.451H71.5598Z" fill="#1A2E35"/>
<path d="M71.5598 254.874V270.267H64.973V254.874H71.5598Z" fill="#1A2E35"/>
<path d="M71.5598 41.2571V56.6501H64.973V41.2571H71.5598Z" fill="#1A2E35"/>
<path d="M71.5598 60.6798V76.0728H64.973V60.6798H71.5598Z" fill="#1A2E35"/>
<path d="M71.5598 80.1028V95.4958H64.973V80.1028H71.5598Z" fill="#1A2E35"/>
<path d="M71.5598 99.5142V114.907H64.973V99.5142H71.5598Z" fill="#1A2E35"/>
<path d="M71.5598 118.937V134.33H64.973V118.937H71.5598Z" fill="#1A2E35"/>
<path d="M71.5598 138.36V153.753H64.973V138.36H71.5598Z" fill="#1A2E35"/>
<path d="M71.5598 157.772V173.165H64.973V157.772H71.5598Z" fill="#1A2E35"/>
<path d="M71.5598 177.194V192.587H64.973V177.194H71.5598Z" fill="#1A2E35"/>
<path d="M71.5598 196.617V212.01H64.973V196.617H71.5598Z" fill="#1A2E35"/>
<path d="M71.5598 216.029V231.422H64.973V216.029H71.5598Z" fill="#1A2E35"/>
<path d="M71.5598 235.451V250.844H64.973V235.451H71.5598Z" fill="#1A2E35"/>
<path d="M71.5598 254.874V270.267H64.973V254.874H71.5598Z" fill="#1A2E35"/>
<path d="M82.4706 41.2571V56.6501H75.8843V41.2571H82.4706Z" fill="#1A2E35"/>
<path d="M82.4706 60.6798V76.0728H75.8843V60.6798H82.4706Z" fill="#1A2E35"/>
<path d="M82.4706 80.1028V95.4958H75.8843V80.1028H82.4706Z" fill="#1A2E35"/>
<path d="M82.4706 99.5142V114.907H75.8843V99.5142H82.4706Z" fill="#1A2E35"/>
<path d="M82.4706 118.937V134.33H75.8843V118.937H82.4706Z" fill="#1A2E35"/>
<path d="M82.4706 138.36V153.753H75.8843V138.36H82.4706Z" fill="#1A2E35"/>
<path d="M82.4706 157.772V173.165H75.8843V157.772H82.4706Z" fill="#1A2E35"/>
<path d="M82.4706 177.194V192.587H75.8843V177.194H82.4706Z" fill="#1A2E35"/>
<path d="M82.4706 196.617V212.01H75.8843V196.617H82.4706Z" fill="#1A2E35"/>
<path d="M82.4706 216.029V231.422H75.8843V216.029H82.4706Z" fill="#1A2E35"/>
<path d="M82.4706 235.451V250.844H75.8843V235.451H82.4706Z" fill="#1A2E35"/>
<path d="M82.4706 254.874V270.267H75.8843V254.874H82.4706Z" fill="#1A2E35"/>
<path d="M82.4706 41.2571V56.6501H75.8843V41.2571H82.4706Z" fill="#1A2E35"/>
<path d="M82.4706 60.6798V76.0728H75.8843V60.6798H82.4706Z" fill="#1A2E35"/>
<path d="M82.4706 80.1028V95.4958H75.8843V80.1028H82.4706Z" fill="#1A2E35"/>
<path d="M82.4706 99.5142V114.907H75.8843V99.5142H82.4706Z" fill="#1A2E35"/>
<path d="M82.4706 118.937V134.33H75.8843V118.937H82.4706Z" fill="#1A2E35"/>
<path d="M82.4706 138.36V153.753H75.8843V138.36H82.4706Z" fill="#1A2E35"/>
<path d="M82.4706 157.772V173.165H75.8843V157.772H82.4706Z" fill="#1A2E35"/>
<path d="M82.4706 177.194V192.587H75.8843V177.194H82.4706Z" fill="#1A2E35"/>
<path d="M82.4706 196.617V212.01H75.8843V196.617H82.4706Z" fill="#1A2E35"/>
<path d="M82.4706 216.029V231.422H75.8843V216.029H82.4706Z" fill="#1A2E35"/>
<path d="M82.4706 235.451V250.844H75.8843V235.451H82.4706Z" fill="#1A2E35"/>
<path d="M82.4706 254.874V270.267H75.8843V254.874H82.4706Z" fill="#1A2E35"/>
<path d="M93.3816 41.2571V56.6501H86.7953V41.2571H93.3816Z" fill="#1A2E35"/>
<path d="M93.3816 60.6798V76.0728H86.7953V60.6798H93.3816Z" fill="#1A2E35"/>
<path d="M93.3816 80.1028V95.4958H86.7953V80.1028H93.3816Z" fill="#1A2E35"/>
<path d="M93.3816 99.5142V114.907H86.7953V99.5142H93.3816Z" fill="#1A2E35"/>
<path d="M93.3816 118.937V134.33H86.7953V118.937H93.3816Z" fill="#1A2E35"/>
<path d="M93.3816 138.36V153.753H86.7953V138.36H93.3816Z" fill="#1A2E35"/>
<path d="M93.3816 157.772V173.165H86.7953V157.772H93.3816Z" fill="#1A2E35"/>
<path d="M93.3816 177.194V192.587H86.7953V177.194H93.3816Z" fill="#1A2E35"/>
<path d="M93.3816 196.617V212.01H86.7953V196.617H93.3816Z" fill="#1A2E35"/>
<path d="M93.3816 216.029V231.422H86.7953V216.029H93.3816Z" fill="#1A2E35"/>
<path d="M93.3816 235.451V250.844H86.7953V235.451H93.3816Z" fill="#1A2E35"/>
<path d="M93.3816 254.874V270.267H86.7953V254.874H93.3816Z" fill="#1A2E35"/>
<path d="M93.3816 41.2571V56.6501H86.7953V41.2571H93.3816Z" fill="#1A2E35"/>
<path d="M93.3816 60.6798V76.0728H86.7953V60.6798H93.3816Z" fill="#1A2E35"/>
<path d="M93.3816 80.1028V95.4958H86.7953V80.1028H93.3816Z" fill="#1A2E35"/>
<path d="M93.3816 99.5142V114.907H86.7953V99.5142H93.3816Z" fill="#1A2E35"/>
<path d="M93.3816 118.937V134.33H86.7953V118.937H93.3816Z" fill="#1A2E35"/>
<path d="M93.3816 138.36V153.753H86.7953V138.36H93.3816Z" fill="#1A2E35"/>
<path d="M93.3816 157.772V173.165H86.7953V157.772H93.3816Z" fill="#1A2E35"/>
<path d="M93.3816 177.194V192.587H86.7953V177.194H93.3816Z" fill="#1A2E35"/>
<path d="M93.3816 196.617V212.01H86.7953V196.617H93.3816Z" fill="#1A2E35"/>
<path d="M93.3816 216.029V231.422H86.7953V216.029H93.3816Z" fill="#1A2E35"/>
<path d="M93.3816 235.451V250.844H86.7953V235.451H93.3816Z" fill="#1A2E35"/>
<path d="M93.3816 254.874V270.267H86.7953V254.874H93.3816Z" fill="#1A2E35"/>
<path d="M61.2855 15.6097V278.888H0.11145V15.6097H61.2855Z" fill="#375A64"/>
<path d="M61.2855 30.3568V33.1237H0.11145V30.3568H61.2855Z" fill="#2B454E"/>
<path d="M61.2855 0.81868V15.6097H21.9163V0.81868H61.2855Z" fill="#2B454E"/>
<path d="M79.7843 0.81868V15.6097H61.2853V0.81868H79.7843Z" fill="#1A2E35"/>
<path d="M17.3587 41.2571V56.6501H6.66516V41.2571H17.3587Z" fill="#1A2E35"/>
<path d="M17.3587 60.6798V76.0728H6.66516V60.6798H17.3587Z" fill="#1A2E35"/>
<path d="M17.3587 80.1028V95.4958H6.66516V80.1028H17.3587Z" fill="#1A2E35"/>
<path d="M17.3587 99.5141V114.907H6.66516V99.5141H17.3587Z" fill="#1A2E35"/>
<path d="M17.3587 118.937V134.33H6.66516V118.937H17.3587Z" fill="#1A2E35"/>
<path d="M17.3587 138.36V153.753H6.66516V138.36H17.3587Z" fill="#1A2E35"/>
<path d="M17.3587 157.772V173.165H6.66516V157.772H17.3587Z" fill="#1A2E35"/>
<path d="M17.3587 177.194V192.587H6.66516V177.194H17.3587Z" fill="#1A2E35"/>
<path d="M17.3587 196.617V212.01H6.66516V196.617H17.3587Z" fill="#1A2E35"/>
<path d="M17.3587 216.029V231.422H6.66516V216.029H17.3587Z" fill="#1A2E35"/>
<path d="M17.3587 235.451V250.844H6.66516V235.451H17.3587Z" fill="#1A2E35"/>
<path d="M17.3587 254.874V270.267H6.66516V254.874H17.3587Z" fill="#1A2E35"/>
<path d="M17.3587 41.2571V56.6501H6.66516V41.2571H17.3587Z" fill="#1A2E35"/>
<path d="M17.3587 60.6798V76.0728H6.66516V60.6798H17.3587Z" fill="#1A2E35"/>
<path d="M17.3587 80.1028V95.4958H6.66516V80.1028H17.3587Z" fill="#1A2E35"/>
<path d="M17.3587 99.5141V114.907H6.66516V99.5141H17.3587Z" fill="#1A2E35"/>
<path d="M17.3587 118.937V134.33H6.66516V118.937H17.3587Z" fill="#1A2E35"/>
<path d="M17.3587 138.36V153.753H6.66516V138.36H17.3587Z" fill="#1A2E35"/>
<path d="M17.3587 157.772V173.165H6.66516V157.772H17.3587Z" fill="#1A2E35"/>
<path d="M17.3587 177.194V192.587H6.66516V177.194H17.3587Z" fill="#1A2E35"/>
<path d="M17.3587 196.617V212.01H6.66516V196.617H17.3587Z" fill="#1A2E35"/>
<path d="M17.3587 216.029V231.422H6.66516V216.029H17.3587Z" fill="#1A2E35"/>
<path d="M17.3587 235.451V250.844H6.66516V235.451H17.3587Z" fill="#1A2E35"/>
<path d="M17.3587 254.874V270.267H6.66516V254.874H17.3587Z" fill="#1A2E35"/>
<path d="M35.0739 41.2571V56.6501H24.3804V41.2571H35.0739Z" fill="#1A2E35"/>
<path d="M35.0739 60.6798V76.0728H24.3804V60.6798H35.0739Z" fill="#1A2E35"/>
<path d="M35.0739 80.1028V95.4958H24.3804V80.1028H35.0739Z" fill="#1A2E35"/>
<path d="M35.0739 99.5141V114.907H24.3804V99.5141H35.0739Z" fill="#1A2E35"/>
<path d="M35.0739 118.937V134.33H24.3804V118.937H35.0739Z" fill="#1A2E35"/>
<path d="M35.0739 138.36V153.753H24.3804V138.36H35.0739Z" fill="#1A2E35"/>
<path d="M35.0739 157.772V173.165H24.3804V157.772H35.0739Z" fill="#1A2E35"/>
<path d="M35.0739 177.194V192.587H24.3804V177.194H35.0739Z" fill="#1A2E35"/>
<path d="M35.0739 196.617V212.01H24.3804V196.617H35.0739Z" fill="#1A2E35"/>
<path d="M35.0739 216.029V231.422H24.3804V216.029H35.0739Z" fill="#1A2E35"/>
<path d="M35.0739 235.451V250.844H24.3804V235.451H35.0739Z" fill="#1A2E35"/>
<path d="M35.0739 254.874V270.267H24.3804V254.874H35.0739Z" fill="#1A2E35"/>
<path d="M35.0739 41.2571V56.6501H24.3804V41.2571H35.0739Z" fill="#1A2E35"/>
<path d="M35.0739 60.6798V76.0728H24.3804V60.6798H35.0739Z" fill="#1A2E35"/>
<path d="M35.0739 80.1028V95.4958H24.3804V80.1028H35.0739Z" fill="#1A2E35"/>
<path d="M35.0739 99.5141V114.907H24.3804V99.5141H35.0739Z" fill="#1A2E35"/>
<path d="M35.0739 118.937V134.33H24.3804V118.937H35.0739Z" fill="#1A2E35"/>
<path d="M35.0739 138.36V153.753H24.3804V138.36H35.0739Z" fill="#1A2E35"/>
<path d="M35.0739 157.772V173.165H24.3804V157.772H35.0739Z" fill="#1A2E35"/>
<path d="M35.0739 177.194V192.587H24.3804V177.194H35.0739Z" fill="#1A2E35"/>
<path d="M35.0739 196.617V212.01H24.3804V196.617H35.0739Z" fill="#1A2E35"/>
<path d="M35.0739 216.029V231.422H24.3804V216.029H35.0739Z" fill="#1A2E35"/>
<path d="M35.0739 235.451V250.844H24.3804V235.451H35.0739Z" fill="#1A2E35"/>
<path d="M35.0739 254.874V270.267H24.3804V254.874H35.0739Z" fill="#1A2E35"/>
<path d="M52.7893 41.2571V56.6501H42.0957V41.2571H52.7893Z" fill="#1A2E35"/>
<path d="M52.7893 60.6798V76.0728H42.0957V60.6798H52.7893Z" fill="#1A2E35"/>
<path d="M52.7893 80.1028V95.4958H42.0957V80.1028H52.7893Z" fill="#1A2E35"/>
<path d="M52.7893 99.5141V114.907H42.0957V99.5141H52.7893Z" fill="#1A2E35"/>
<path d="M52.7893 118.937V134.33H42.0957V118.937H52.7893Z" fill="#1A2E35"/>
<path d="M52.7893 138.36V153.753H42.0957V138.36H52.7893Z" fill="#1A2E35"/>
<path d="M52.7893 157.772V173.165H42.0957V157.772H52.7893Z" fill="#1A2E35"/>
<path d="M52.7893 177.194V192.587H42.0957V177.194H52.7893Z" fill="#1A2E35"/>
<path d="M52.7893 196.617V212.01H42.0957V196.617H52.7893Z" fill="#1A2E35"/>
<path d="M52.7893 216.029V231.422H42.0957V216.029H52.7893Z" fill="#1A2E35"/>
<path d="M52.7893 235.451V250.844H42.0957V235.451H52.7893Z" fill="#1A2E35"/>
<path d="M52.7893 254.874V270.267H42.0957V254.874H52.7893Z" fill="#1A2E35"/>
<path d="M52.7893 41.2571V56.6501H42.0957V41.2571H52.7893Z" fill="#1A2E35"/>
<path d="M52.7893 60.6798V76.0728H42.0957V60.6798H52.7893Z" fill="#1A2E35"/>
<path d="M52.7893 80.1028V95.4958H42.0957V80.1028H52.7893Z" fill="#1A2E35"/>
<path d="M52.7893 99.5141V114.907H42.0957V99.5141H52.7893Z" fill="#1A2E35"/>
<path d="M52.7893 118.937V134.33H42.0957V118.937H52.7893Z" fill="#1A2E35"/>
<path d="M52.7893 138.36V153.753H42.0957V138.36H52.7893Z" fill="#1A2E35"/>
<path d="M52.7893 157.772V173.165H42.0957V157.772H52.7893Z" fill="#1A2E35"/>
<path d="M52.7893 177.194V192.587H42.0957V177.194H52.7893Z" fill="#1A2E35"/>
<path d="M52.7893 196.617V212.01H42.0957V196.617H52.7893Z" fill="#1A2E35"/>
<path d="M52.7893 216.029V231.422H42.0957V216.029H52.7893Z" fill="#1A2E35"/>
<path d="M52.7893 235.451V250.844H42.0957V235.451H52.7893Z" fill="#1A2E35"/>
<path d="M52.7893 254.874V270.267H42.0957V254.874H52.7893Z" fill="#1A2E35"/>
</svg>
