<svg width="92" height="184" viewBox="0 0 92 184" fill="none" xmlns="http://www.w3.org/2000/svg">
<path d="M48.894 183.864H0.398682V31.8718L48.894 0.471191V183.864Z" fill="#FFC800"/>
<g opacity="0.5">
<path d="M42.661 183.864H5.85596V36.1242L42.661 12.2926V183.864Z" fill="#FFC800"/>
<g opacity="0.3">
<path d="M42.661 183.864H5.85596V36.1242L42.661 12.2926V183.864Z" fill="black"/>
</g>
<path d="M42.6605 39.8523H10.0706V38.681H42.6605V39.8523Z" fill="black"/>
<path d="M42.6605 49.4533H10.0706V48.2819H42.6605V49.4533Z" fill="black"/>
<path d="M42.6605 59.0541H10.0706V57.8828H42.6605V59.0541Z" fill="black"/>
<path d="M42.6605 68.6546H10.0706V67.4832H42.6605V68.6546Z" fill="black"/>
<path d="M42.6605 78.2554H10.0706V77.0841H42.6605V78.2554Z" fill="black"/>
<path d="M42.6605 87.8563H10.0706V86.6849H42.6605V87.8563Z" fill="black"/>
<path d="M42.6605 97.4567H10.0706V96.2854H42.6605V97.4567Z" fill="black"/>
<path d="M42.6605 107.058H10.0706V105.886H42.6605V107.058Z" fill="black"/>
<path d="M42.6605 116.658H10.0706V115.487H42.6605V116.658Z" fill="black"/>
<path d="M42.6605 126.259H10.0706V125.087H42.6605V126.259Z" fill="black"/>
<path d="M42.6605 135.86H10.0706V134.688H42.6605V135.86Z" fill="black"/>
<path d="M42.6605 145.461H10.0706V144.289H42.6605V145.461Z" fill="black"/>
<path d="M42.6605 155.061H10.0706V153.89H42.6605V155.061Z" fill="black"/>
<path d="M42.6605 164.662H10.0706V163.491H42.6605V164.662Z" fill="black"/>
<path d="M42.6605 174.263H10.0706V173.091H42.6605V174.263Z" fill="black"/>
<path d="M42.6605 183.863H10.0706V182.692H42.6605V183.863Z" fill="black"/>
<path d="M26.9518 27.5245V183.863H25.7793V27.5245H26.9518Z" fill="black"/>
<path d="M42.6599 12.2917V17.5796L10.0704 38.681V183.864H5.85852V36.121L42.6599 12.2917Z" fill="#FFC800"/>
<g opacity="0.2">
<path d="M42.6599 12.2917V17.5796L10.0704 38.681V183.864H5.85852V36.121L42.6599 12.2917Z" fill="black"/>
</g>
</g>
<path d="M91.6189 183.864H48.8944V0.471193H91.6189V183.864Z" fill="#FFC800"/>
<g opacity="0.2">
<path d="M91.6189 183.864H48.8944V0.471193H91.6189V183.864Z" fill="black"/>
</g>
<g opacity="0.2">
<path d="M87.4736 16.4422H53.0398V12.2917H87.4736V16.4422ZM87.4736 25.8471H53.0398V21.6966H87.4736V25.8471ZM87.4736 35.252H53.0398V31.1015H87.4736V35.252ZM87.4736 44.6564H53.0398V40.5059H87.4736V44.6564ZM87.4736 54.0613H53.0398V49.9108H87.4736V54.0613ZM87.4736 63.4662H53.0398V59.3152H87.4736V63.4662ZM87.4736 72.8706H53.0398V68.7201H87.4736V72.8706ZM87.4736 82.2755H53.0398V78.125H87.4736V82.2755ZM87.4736 91.6804H53.0398V87.5295H87.4736V91.6804ZM87.4736 101.085H53.0398V96.9344H87.4736V101.085ZM87.4736 110.49H53.0398V106.339H87.4736V110.49ZM87.4736 119.894H53.0398V115.744H87.4736V119.894ZM87.4736 129.299H53.0398V125.149H87.4736V129.299ZM87.4736 138.704H53.0398V134.553H87.4736V138.704ZM87.4736 148.108H53.0398V143.958H87.4736V148.108ZM87.4736 157.513H53.0398V153.363H87.4736V157.513ZM87.4736 166.918H53.0398V162.767H87.4736V166.918ZM87.4736 176.323H53.0398V172.172H87.4736V176.323Z" fill="black"/>
</g>
</svg>
