<svg width="332" height="141" viewBox="0 0 332 141" fill="none" xmlns="http://www.w3.org/2000/svg">
<path d="M335.611 140.028H248.836C248.836 140.028 257.44 116.55 270.681 116.55C283.923 116.55 288.07 132.756 288.07 132.756C288.07 132.756 297.004 123.951 304.342 123.951C311.681 123.951 318.062 135.586 318.062 135.586C318.062 135.586 328.432 129.329 335.611 140.028Z" fill="#ECECEC"/>
<path d="M286.945 48.0772H246.392C246.392 48.0772 255.453 34.9613 262.592 34.9613C269.732 34.9613 271.841 43.7053 271.841 43.7053C271.841 43.7053 276.88 39.6246 281.547 40.3533C286.215 41.082 286.945 48.0772 286.945 48.0772Z" fill="#ECECEC"/>
<path d="M88.9885 107.873H10C10 107.873 20.8168 83.7465 32.3884 82.2383C43.9599 80.7302 49.4938 100.166 49.4938 100.166C49.4938 100.166 56.9572 93.2962 62.8268 93.2962C68.6964 93.2962 73.2241 102.344 73.2241 102.344C73.2241 102.344 84.9637 96.1445 88.9885 107.873Z" fill="#ECECEC"/>
<path d="M64.5621 17.7384H11.2039C11.2039 17.7384 20.3693 0.258384 30.3127 0.00356667C40.256 -0.25125 45.4827 13.2326 45.4827 13.2326C45.4827 13.2326 60.95 0.831847 64.5621 17.7384Z" fill="#ECECEC"/>
<path d="M36.0149 138.459H0C0 138.459 6.18673 126.661 12.8981 126.489C19.6094 126.317 23.1372 135.418 23.1372 135.418C23.1372 135.418 33.5771 127.048 36.0149 138.459Z" fill="#ECECEC"/>
</svg>
