<svg width="55" height="54" viewBox="0 0 55 54" fill="none" xmlns="http://www.w3.org/2000/svg">
<path d="M53.2167 27.4301C53.2167 41.4028 41.7514 52.7299 27.6083 52.7299C13.4653 52.7299 2 41.4028 2 27.4301C2 13.4574 13.4653 2.13029 27.6083 2.13029C41.7514 2.13029 53.2167 13.4574 53.2167 27.4301Z" fill="#F5F6F8"/>
<path d="M46.856 27.4301C46.856 37.9323 38.2383 46.446 27.6081 46.446C16.9778 46.446 8.36035 37.9323 8.36035 27.4301C8.36035 16.9278 16.9778 8.41421 27.6081 8.41421C38.2383 8.41421 46.856 16.9278 46.856 27.4301Z" stroke="#F5B419" stroke-width="14.8537" stroke-miterlimit="10"/>
<path d="M44.7134 27.4301C44.7134 36.763 37.0552 44.3289 27.6084 44.3289C18.1616 44.3289 10.5034 36.763 10.5034 27.4301C10.5034 18.0971 18.1616 10.5313 27.6084 10.5313C37.0552 10.5313 44.7134 18.0971 44.7134 27.4301Z" fill="#F5B419"/>
<mask id="mask0_1_6950" style="mask-type:alpha" maskUnits="userSpaceOnUse" x="18" y="21" width="19" height="13">
<path d="M25.1776 33.4698C24.7046 33.4698 24.2332 33.2847 23.8834 32.9188L19.2558 28.0779C18.581 27.3719 18.6132 26.2592 19.3276 25.5925C20.0421 24.926 21.1685 24.9576 21.8433 25.6635L25.2694 29.2475L33.4671 21.8503C34.193 21.1954 35.3186 21.2458 35.9814 21.9627C36.6441 22.6797 36.5932 23.7918 35.8675 24.4466L26.3773 33.0098C26.0363 33.3175 25.6064 33.4698 25.1776 33.4698Z" fill="white"/>
</mask>
<g mask="url(#mask0_1_6950)">
<path d="M38.2726 20.1256L37.8871 35.6967L15.134 35.171L15.5195 19.6L38.2726 20.1256Z" fill="white"/>
</g>
<path d="M4.19442 9.29087C4.16181 9.24246 4.22339 9.18652 4.26966 9.22246C4.69452 9.55252 5.49948 10.1421 5.83091 10.1441C6.16035 10.146 6.96495 9.57302 7.39589 9.24698C7.44282 9.21148 7.50365 9.2687 7.46991 9.31666C7.1709 9.74155 6.65719 10.518 6.65516 10.8405C6.65303 11.1799 7.21156 12.0292 7.49525 12.4385C7.5274 12.4849 7.47139 12.5412 7.42401 12.5101C7.01166 12.2394 6.16341 11.711 5.82107 11.709C5.47729 11.7069 4.61675 12.2295 4.20299 12.4943C4.15543 12.5247 4.10012 12.4682 4.13233 12.4222C4.41512 12.0177 4.9774 11.1709 4.97954 10.8305C4.98158 10.5065 4.48203 9.71784 4.19442 9.29087Z" fill="#F5B419"/>
<path d="M48.2506 29.7629C48.2011 29.7029 48.2749 29.621 48.3408 29.6629C48.946 30.047 50.0879 30.7275 50.5259 30.6886C50.9613 30.6499 51.9476 29.7896 52.4732 29.3035C52.5305 29.2506 52.6184 29.3188 52.5803 29.3866C52.2421 29.9872 51.6672 31.0806 51.7075 31.5082C51.75 31.9583 52.6011 33.0139 53.0304 33.5208C53.0791 33.5783 53.0126 33.6599 52.9459 33.6246C52.3651 33.3175 51.1742 32.7235 50.7218 32.7637C50.2674 32.8041 49.2006 33.6045 48.6894 34.0073C48.6307 34.0536 48.5501 33.9857 48.5865 33.9206C48.906 33.3491 49.5357 32.1565 49.4931 31.705C49.4525 31.2753 48.6875 30.2928 48.2506 29.7629Z" fill="#F5B419"/>
<path d="M41.279 43.066C41.2396 43.0474 41.257 42.9886 41.3002 42.9942C41.6974 43.0452 42.4362 43.119 42.6471 42.996C42.8568 42.8738 43.1451 42.2071 43.2922 41.8378C43.3082 41.7976 43.3689 41.8112 43.3661 41.8544C43.341 42.2372 43.3159 42.9245 43.4395 43.1306C43.5696 43.3477 44.2526 43.6793 44.591 43.8338C44.6294 43.8513 44.6156 43.9081 44.5735 43.906C44.2072 43.8882 43.4647 43.8696 43.2468 43.9966C43.028 44.1242 42.6847 44.7797 42.5248 45.1035C42.5065 45.1407 42.4495 45.1255 42.4521 45.0841C42.4748 44.7204 42.5035 43.9702 42.373 43.7525C42.2489 43.5453 41.6267 43.2302 41.279 43.066Z" fill="#F5B419"/>
<path d="M43.8725 8.74572C43.8286 8.77552 43.7766 8.72122 43.8089 8.67937C44.1052 8.29508 44.6339 7.56745 44.6311 7.27112C44.6284 6.97656 44.0929 6.26497 43.7885 5.8841C43.7553 5.84263 43.8069 5.78747 43.8513 5.81699C44.2443 6.07857 44.9621 6.52734 45.2573 6.5248C45.5681 6.52212 46.3379 6.0113 46.7087 5.75214C46.7507 5.72277 46.803 5.77208 46.7752 5.81486C46.533 6.18718 46.061 6.95267 46.0638 7.25877C46.0666 7.56614 46.5568 8.32842 46.8048 8.69476C46.8333 8.73686 46.7824 8.78708 46.7398 8.7589C46.3656 8.51155 45.5828 8.0203 45.2711 8.02299C44.9745 8.02554 44.2594 8.48281 43.8725 8.74572Z" fill="#F5B419"/>
<path d="M9.78993 47.4496C9.80683 47.5297 9.69701 47.5717 9.65572 47.5011C9.27656 46.8526 8.53927 45.6706 8.10845 45.4998C7.6802 45.3299 6.32883 45.6728 5.59494 45.8815C5.51502 45.9042 5.46601 45.7983 5.53533 45.7525C6.14955 45.3472 7.22939 44.5898 7.40247 44.168C7.58467 43.724 7.3058 42.3266 7.15249 41.6458C7.13511 41.5686 7.23785 41.5232 7.28315 41.5881C7.67737 42.1525 8.50341 43.2761 8.94843 43.4527C9.39532 43.6299 10.7929 43.3816 11.472 43.2445C11.5501 43.2287 11.5923 43.3309 11.526 43.3749C10.9437 43.7618 9.76342 44.5866 9.58067 45.032C9.40674 45.4558 9.64083 46.7437 9.78993 47.4496Z" fill="#F5B419"/>
</svg>
