<svg width="37" height="36" viewBox="0 0 37 36" fill="none" xmlns="http://www.w3.org/2000/svg">
<path d="M29.0725 18.6277C29.0725 24.7621 23.9615 29.735 17.6567 29.735C11.352 29.735 6.24097 24.7621 6.24097 18.6277C6.24097 12.4934 11.352 7.52051 17.6567 7.52051C23.9615 7.52051 29.0725 12.4934 29.0725 18.6277Z" fill="#F5F6F8"/>
<path d="M26.2371 18.6277C26.2371 23.2385 22.3955 26.9762 17.6567 26.9762C12.9179 26.9762 9.07642 23.2385 9.07642 18.6277C9.07642 14.017 12.9179 10.2793 17.6567 10.2793C22.3955 10.2793 26.2371 14.017 26.2371 18.6277Z" stroke="#D6D6D6" stroke-width="14.8537" stroke-miterlimit="10"/>
<path d="M25.282 18.6277C25.282 22.7251 21.8681 26.0467 17.6568 26.0467C13.4456 26.0467 10.0317 22.7251 10.0317 18.6277C10.0317 14.5303 13.4456 11.2087 17.6568 11.2087C21.8681 11.2087 25.282 14.5303 25.282 18.6277Z" fill="#D6D6D6"/>
<mask id="mask0_1_3286" style="mask-type:alpha" maskUnits="userSpaceOnUse" x="13" y="15" width="9" height="7">
<path d="M16.5732 21.2793C16.3624 21.2793 16.1522 21.198 15.9963 21.0374L13.9334 18.9121C13.6325 18.6022 13.6469 18.1137 13.9653 17.821C14.2839 17.5284 14.786 17.5422 15.0868 17.8522L16.6141 19.4256L20.2685 16.178C20.5921 15.8905 21.0939 15.9127 21.3893 16.2274C21.6848 16.5422 21.6621 17.0304 21.3386 17.3179L17.108 21.0774C16.956 21.2124 16.7643 21.2793 16.5732 21.2793Z" fill="white"/>
</mask>
<g mask="url(#mask0_1_3286)">
<path d="M22.4104 15.4143L22.2335 22.257L12.0956 22.0329L12.2725 15.1902L22.4104 15.4143Z" fill="white"/>
</g>
<path d="M7.21919 10.6638C7.20465 10.6425 7.2321 10.618 7.25272 10.6337C7.4421 10.7787 7.80091 11.0375 7.94864 11.0384C8.09548 11.0393 8.45413 10.7877 8.64622 10.6445C8.66714 10.6289 8.69425 10.654 8.67921 10.6751C8.54593 10.8616 8.31695 11.2026 8.31604 11.3441C8.31509 11.4932 8.56405 11.8661 8.6905 12.0458C8.70483 12.0662 8.67987 12.0909 8.65875 12.0772C8.47495 11.9584 8.09685 11.7264 7.94425 11.7255C7.79101 11.7246 7.40743 11.954 7.223 12.0703C7.20181 12.0836 7.17715 12.0588 7.19151 12.0386C7.31756 11.861 7.56819 11.4892 7.56915 11.3398C7.57005 11.1975 7.34739 10.8512 7.21919 10.6638Z" fill="#D6D6D6"/>
<path d="M26.8584 19.6476C26.8363 19.6212 26.8691 19.5852 26.8984 19.6037C27.1681 19.7734 27.6769 20.0739 27.8717 20.0573C28.0653 20.0407 28.5031 19.6633 28.7364 19.45C28.7618 19.4268 28.801 19.4569 28.7841 19.4867C28.6343 19.7505 28.3798 20.2309 28.3982 20.4191C28.4177 20.6172 28.7974 21.0824 28.989 21.3059C29.0107 21.3312 28.9813 21.3671 28.9515 21.3515C28.6928 21.2157 28.1624 20.9532 27.9611 20.9704C27.7591 20.9877 27.2854 21.3387 27.0585 21.5153C27.0324 21.5356 26.9964 21.5057 27.0126 21.4771C27.1541 21.226 27.4328 20.702 27.4133 20.5033C27.3948 20.3142 27.0533 19.8812 26.8584 19.6476Z" fill="#D6D6D6"/>
<path d="M23.7509 25.4895C23.7333 25.4813 23.7409 25.4555 23.7602 25.458C23.9372 25.4811 24.2663 25.5147 24.3601 25.4609C24.4533 25.4075 24.5806 25.115 24.6455 24.953C24.6525 24.9353 24.6796 24.9414 24.6784 24.9604C24.6679 25.1286 24.6578 25.4306 24.7132 25.5213C24.7715 25.6169 25.0762 25.7637 25.2272 25.8321C25.2443 25.8399 25.2383 25.8648 25.2195 25.8639C25.0564 25.8554 24.7256 25.8461 24.6288 25.9016C24.5316 25.9573 24.3797 26.2448 24.3091 26.3869C24.3009 26.4032 24.2756 26.3964 24.2766 26.3782C24.2862 26.2184 24.2977 25.8888 24.2392 25.7929C24.1836 25.7017 23.906 25.5622 23.7509 25.4895Z" fill="#D6D6D6"/>
<path d="M24.9066 10.4252C24.8871 10.4383 24.8639 10.4144 24.8783 10.3961C25.0103 10.2273 25.246 9.90784 25.2448 9.77773C25.2436 9.6484 25.0048 9.33595 24.8692 9.16872C24.8544 9.1505 24.8774 9.12629 24.8972 9.13925C25.0723 9.2541 25.3923 9.45115 25.5239 9.45004C25.6624 9.44886 26.0055 9.22457 26.1708 9.11078C26.1895 9.09788 26.2128 9.11953 26.2004 9.13832C26.0925 9.3018 25.8821 9.63791 25.8833 9.77231C25.8846 9.90727 26.1031 10.242 26.2136 10.4028C26.2263 10.4213 26.2036 10.4434 26.1846 10.431C26.0179 10.3224 25.669 10.1067 25.53 10.1079C25.3978 10.109 25.0791 10.3098 24.9066 10.4252Z" fill="#D6D6D6"/>
<path d="M9.70595 27.4168C9.71328 27.452 9.66434 27.4707 9.64613 27.4398C9.47893 27.1552 9.15361 26.6368 8.96235 26.5626C8.77223 26.4888 8.17031 26.6425 7.84337 26.7359C7.80777 26.7461 7.7862 26.6996 7.81714 26.6793C8.09129 26.4997 8.57336 26.1641 8.65131 25.9782C8.73336 25.7824 8.61246 25.1682 8.5458 24.869C8.53824 24.8351 8.58405 24.8149 8.60405 24.8434C8.77814 25.0909 9.14307 25.5834 9.34064 25.6601C9.53903 25.7371 10.1613 25.6249 10.4637 25.5631C10.4985 25.556 10.517 25.6008 10.4874 25.6204C10.2275 25.7918 9.70062 26.1573 9.61832 26.3536C9.53999 26.5405 9.64121 27.1065 9.70595 27.4168Z" fill="#D6D6D6"/>
</svg>
