<svg width="75" height="75" viewBox="0 0 75 75" fill="none" xmlns="http://www.w3.org/2000/svg">
<circle cx="37.5" cy="37.5" r="37.5" fill="#EDF4F5"/>
<g clip-path="url(#clip0_307_326)">
<path d="M37 13C23.2149 13 12 24.2149 12 38C12 51.7851 23.2149 63 37 63C50.7851 63 62 51.7851 62 38C62 24.2149 50.7851 13 37 13ZM37 59.875C24.9381 59.875 15.125 50.0619 15.125 38C15.125 25.9381 24.9381 16.125 37 16.125C49.0619 16.125 58.875 25.9381 58.875 38C58.875 50.0619 49.0619 59.875 37 59.875ZM50.1695 45.6172C47.4378 50.3481 42.5147 53.1727 37.0004 53.1728C31.4858 53.1729 26.5625 50.3483 23.8306 45.6172C23.399 44.8699 23.655 43.9143 24.4022 43.4828C25.1497 43.0513 26.1053 43.3073 26.5366 44.0545C28.7037 47.8073 32.6154 50.0479 37.0003 50.0478C41.385 50.0477 45.2964 47.8072 47.4633 44.0545C47.8947 43.3071 48.8504 43.0512 49.5977 43.4827C50.345 43.9143 50.601 44.8698 50.1695 45.6172ZM23.5896 31.8421C23.5896 30.1183 24.9921 28.7157 26.716 28.7157C28.4399 28.7157 29.8424 30.1182 29.8424 31.8421C29.8424 33.566 28.4399 34.9685 26.716 34.9685C24.9921 34.9685 23.5896 33.566 23.5896 31.8421ZM50.4104 31.8421C50.4104 33.5659 49.008 34.9685 47.2841 34.9685C45.5602 34.9685 44.1577 33.566 44.1577 31.8421C44.1577 30.1182 45.5602 28.7157 47.2841 28.7157C49.0079 28.7158 50.4104 30.1183 50.4104 31.8421Z" fill="#9F9F9F"/>
</g>
<defs>
<clipPath id="clip0_307_326">
<rect width="50" height="50" fill="white" transform="translate(12 13)"/>
</clipPath>
</defs>
</svg>
