<svg width="204" height="27" viewBox="0 0 204 27" fill="none" xmlns="http://www.w3.org/2000/svg">
<path d="M13.056 26.448C9.024 26.448 5.90933 25.424 3.712 23.376C1.536 21.328 0.448 18.0533 0.448 13.552C0.448 4.95467 4.62933 0.655998 12.992 0.655998C15.0187 0.655998 16.896 0.901332 18.624 1.392C20.3733 1.88266 21.6747 2.42666 22.528 3.024V11.024H14.848V8.72C14.848 7.90933 14.6667 7.312 14.304 6.928C13.9413 6.544 13.3973 6.352 12.672 6.352C11.9467 6.352 11.4027 6.544 11.04 6.928C10.6773 7.312 10.496 7.90933 10.496 8.72V18.384C10.496 19.1947 10.6773 19.792 11.04 20.176C11.4027 20.56 11.9467 20.752 12.672 20.752C13.3973 20.752 13.9413 20.56 14.304 20.176C14.6667 19.792 14.848 19.1947 14.848 18.384V15.792H22.528V24.08C21.6533 24.6773 20.352 25.2213 18.624 25.712C16.9173 26.2027 15.0613 26.448 13.056 26.448ZM33.2058 26.448C30.1764 26.448 27.8084 25.6587 26.1018 24.08C24.3951 22.48 23.5418 20.1547 23.5418 17.104C23.5418 14.0533 24.3951 11.7387 26.1018 10.16C27.8084 8.56 30.1764 7.76 33.2058 7.76C36.2778 7.76 38.6564 8.57067 40.3418 10.192C42.0271 11.792 42.8698 14.096 42.8698 17.104C42.8698 20.1547 42.0164 22.48 40.3098 24.08C38.6031 25.6587 36.2351 26.448 33.2058 26.448ZM33.2058 20.752C33.8244 20.752 34.2831 20.592 34.5818 20.272C34.9018 19.9307 35.0618 19.408 35.0618 18.704V15.504C35.0618 14.8 34.9018 14.288 34.5818 13.968C34.2831 13.6267 33.8244 13.456 33.2058 13.456C32.5871 13.456 32.1178 13.6267 31.7978 13.968C31.4991 14.288 31.3498 14.8 31.3498 15.504V18.704C31.3498 19.408 31.4991 19.9307 31.7978 20.272C32.1178 20.592 32.5871 20.752 33.2058 20.752ZM76.2085 20.752V26H66.0965V20.752H67.4405V15.504C67.4405 14.8 67.2912 14.288 66.9925 13.968C66.6938 13.6267 66.2458 13.456 65.6485 13.456C64.3685 13.456 63.7285 14.1387 63.7285 15.504V20.752H65.0725V26H55.0245V20.752H56.3685V15.504C56.3685 14.8 56.2192 14.288 55.9205 13.968C55.6218 13.6267 55.1738 13.456 54.5765 13.456C53.2965 13.456 52.6565 14.1387 52.6565 15.504V20.752H54.0005V26H43.8885V20.752H45.2965V13.456H43.8885V8.208H52.6565V10.704C54.1925 8.74133 56.1125 7.76 58.4165 7.76C59.7178 7.76 60.7738 8.06933 61.5845 8.688C62.4165 9.28533 63.0032 10.1387 63.3445 11.248C64.1125 10.1387 64.9872 9.28533 65.9685 8.688C66.9712 8.09067 68.1445 7.792 69.4885 7.792C71.2592 7.792 72.5818 8.34667 73.4565 9.456C74.3525 10.5653 74.8005 12.0907 74.8005 14.032V20.752H76.2085ZM77.2323 20.752H78.6403V13.456H77.2323V8.208H78.7043C78.7043 5.60533 79.3336 3.696 80.5923 2.48C81.8723 1.264 83.7283 0.655998 86.1603 0.655998C87.3336 0.655998 88.3789 0.741332 89.2963 0.911999C90.2349 1.08267 90.9176 1.27467 91.3443 1.488V6.512C90.2136 6.40533 89.1683 6.352 88.2083 6.352C87.3763 6.352 86.8003 6.49067 86.4803 6.768C86.1603 7.04533 86.0003 7.52533 86.0003 8.208H88.4963V13.456H86.0003V20.752H88.4963V26H77.2323V20.752ZM99.0495 26.448C96.0202 26.448 93.6522 25.6587 91.9455 24.08C90.2388 22.48 89.3855 20.1547 89.3855 17.104C89.3855 14.0533 90.2388 11.7387 91.9455 10.16C93.6522 8.56 96.0202 7.76 99.0495 7.76C102.122 7.76 104.5 8.57067 106.186 10.192C107.871 11.792 108.714 14.096 108.714 17.104C108.714 20.1547 107.86 22.48 106.154 24.08C104.447 25.6587 102.079 26.448 99.0495 26.448ZM99.0495 20.752C99.6682 20.752 100.127 20.592 100.426 20.272C100.746 19.9307 100.906 19.408 100.906 18.704V15.504C100.906 14.8 100.746 14.288 100.426 13.968C100.127 13.6267 99.6682 13.456 99.0495 13.456C98.4308 13.456 97.9615 13.6267 97.6415 13.968C97.3428 14.288 97.1935 14.8 97.1935 15.504V18.704C97.1935 19.408 97.3428 19.9307 97.6415 20.272C97.9615 20.592 98.4308 20.752 99.0495 20.752ZM123.396 7.76C123.823 7.76 124.228 7.80267 124.612 7.888C124.996 7.97333 125.316 8.08 125.572 8.208V14.32C124.698 13.9573 123.759 13.776 122.756 13.776C121.412 13.776 120.378 14.128 119.652 14.832C118.927 15.536 118.564 16.5813 118.564 17.968V20.752H121.444V26H109.796V20.752H111.204V13.456H109.796V8.208H118.564V10.544C119.162 9.648 119.844 8.96533 120.612 8.496C121.38 8.00533 122.308 7.76 123.396 7.76ZM134.511 26.448C132.25 26.448 130.543 25.904 129.391 24.816C128.261 23.7067 127.695 21.8507 127.695 19.248V13.456H126.287V8.208C127.098 8.208 127.706 8.00533 128.111 7.6C128.517 7.17333 128.719 6.59733 128.719 5.872V4.432H135.503V8.208H139.823V13.456H135.503V18.704C135.503 19.408 135.653 19.9307 135.951 20.272C136.271 20.592 136.741 20.752 137.359 20.752C138.17 20.752 139.055 20.656 140.015 20.464V25.488C139.418 25.7227 138.607 25.936 137.583 26.128C136.581 26.3413 135.557 26.448 134.511 26.448ZM141.045 26.032V20.752H142.453V6.352H141.045V1.104H149.813V20.752H151.221V26.032H141.045ZM153.768 6.448V1.104H160.296V6.448H153.768ZM152.232 26V20.752H153.64V13.456H152.232V8.208H161V20.752H162.408V26H152.232ZM184.543 20.752V26H174.431V20.752H175.775V15.504C175.775 14.8 175.625 14.288 175.327 13.968C175.028 13.6267 174.58 13.456 173.983 13.456C172.703 13.456 172.063 14.1387 172.063 15.504V20.752H173.407V26H163.295V20.752H164.703V13.456H163.295V8.208H172.063V10.704C173.599 8.74133 175.519 7.76 177.823 7.76C179.593 7.76 180.916 8.31467 181.791 9.424C182.687 10.5333 183.135 12.0587 183.135 14V20.752H184.543ZM195.112 26.448C192.083 26.448 189.715 25.6587 188.008 24.08C186.301 22.48 185.448 20.1547 185.448 17.104C185.448 14.0533 186.301 11.7387 188.008 10.16C189.715 8.56 192.083 7.76 195.112 7.76C198.12 7.76 200.285 8.54933 201.608 10.128C202.952 11.6853 203.624 13.6267 203.624 15.952V18.256H193.256V18.448C193.256 19.2373 193.491 19.824 193.96 20.208C194.429 20.5707 195.208 20.752 196.296 20.752C197.597 20.752 198.835 20.656 200.008 20.464C201.181 20.272 202.205 20.0267 203.08 19.728V24.848C202.333 25.2533 201.235 25.6267 199.784 25.968C198.355 26.288 196.797 26.448 195.112 26.448ZM196.968 14.736V14.352C196.968 13.6267 196.808 13.104 196.488 12.784C196.189 12.464 195.731 12.304 195.112 12.304C194.493 12.304 194.024 12.4747 193.704 12.816C193.405 13.136 193.256 13.648 193.256 14.352V14.736H196.968Z" fill="#FFC800"/>
</svg>
