<svg width="75" height="75" viewBox="0 0 75 75" fill="none" xmlns="http://www.w3.org/2000/svg">
<circle cx="37.5" cy="37.5" r="37.5" fill="#EDEDED"/>
<g clip-path="url(#clip0_307_330)">
<path d="M38 13C24.2149 13 13 24.2149 13 38C13 51.7851 24.2149 63 38 63C51.7851 63 63 51.7851 63 38C63 24.2149 51.7851 13 38 13ZM38 59.875C25.9381 59.875 16.125 50.0619 16.125 38C16.125 25.9381 25.9381 16.125 38 16.125C50.0619 16.125 59.875 25.9381 59.875 38C59.875 50.0619 50.0619 59.875 38 59.875ZM27.7159 34.9685C25.9921 34.9685 24.5896 33.566 24.5896 31.8421C24.5896 30.1182 25.992 28.7157 27.7159 28.7157C29.4398 28.7157 30.8423 30.1182 30.8423 31.8421C30.8423 33.566 29.4398 34.9685 27.7159 34.9685ZM51.4104 31.8421C51.4104 33.5659 50.0079 34.9685 48.284 34.9685C46.5601 34.9685 45.1576 33.566 45.1576 31.8421C45.1576 30.1182 46.5601 28.7157 48.284 28.7157C50.0079 28.7157 51.4104 30.1183 51.4104 31.8421ZM49.3704 47.0242C49.3704 47.8871 48.6709 48.5867 47.8079 48.5867H28.1921C27.3291 48.5867 26.6296 47.8871 26.6296 47.0242C26.6296 46.1613 27.3291 45.4617 28.1921 45.4617H47.8078C48.6709 45.4617 49.3704 46.1612 49.3704 47.0242Z" fill="#9F9F9F"/>
</g>
<defs>
<clipPath id="clip0_307_330">
<rect width="50" height="50" fill="white" transform="translate(13 13)"/>
</clipPath>
</defs>
</svg>
