<svg width="29" height="29" viewBox="0 0 29 29" fill="none" xmlns="http://www.w3.org/2000/svg">
<g clip-path="url(#clip0_1_5118)">
<path d="M14.5002 0.96288C11.8228 0.962847 9.20547 1.75677 6.97927 3.24424C4.75307 4.73172 3.01796 6.84594 1.99336 9.31954C0.968752 11.7931 0.700671 14.515 1.22302 17.141C1.74536 19.767 3.03468 22.1791 4.92791 24.0723C6.18496 25.3293 7.67729 26.3264 9.3197 27.0068C10.9621 27.6871 12.7224 28.0372 14.5002 28.0372C16.2779 28.0372 18.0382 27.6871 19.6806 27.0068C21.3231 26.3264 22.8154 25.3293 24.0724 24.0723C25.3295 22.8152 26.3266 21.3229 27.0069 19.6805C27.6873 18.038 28.0374 16.2777 28.0374 14.5C28.0374 12.7223 27.6873 10.9619 27.0069 9.31952C26.3266 7.67711 25.3295 6.18477 24.0724 4.92772C22.8183 3.66675 21.3265 2.66705 19.6835 1.98648C18.0404 1.30591 16.2786 0.958 14.5002 0.96288ZM14.5002 26.4512C7.91026 26.4512 2.549 21.0899 2.549 14.5C2.549 7.91008 7.91026 2.54882 14.5002 2.54882C21.0901 2.54882 26.4513 7.91008 26.4513 14.5C26.4513 21.0899 21.0901 26.4512 14.5002 26.4512Z" fill="white" fill-opacity="0.82"/>
<path d="M14.5001 6.42468C13.3245 6.426 12.1974 6.89359 11.3661 7.72486C10.5349 8.55613 10.0673 9.68319 10.0659 10.8588H11.6519C11.6519 10.1034 11.9519 9.37894 12.4861 8.84479C13.0202 8.31064 13.7447 8.01056 14.5001 8.01056C15.2555 8.01056 15.9799 8.31064 16.5141 8.84479C17.0482 9.37894 17.3483 10.1034 17.3483 10.8588C17.3483 12.3509 16.6474 13.0519 15.7599 13.9393C14.7977 14.9015 13.7071 15.9921 13.7071 18.1412H15.2931C15.2931 16.6491 15.994 15.9481 16.8814 15.0607C17.8436 14.0985 18.9343 13.0079 18.9343 10.8588C18.9329 9.68319 18.4653 8.55613 17.634 7.72486C16.8028 6.89359 15.6757 6.426 14.5001 6.42468Z" fill="white" fill-opacity="0.82"/>
<path d="M13.5898 20.0791H15.4104V21.665H13.5898V20.0791Z" fill="white" fill-opacity="0.82"/>
</g>
<defs>
<clipPath id="clip0_1_5118">
<rect width="29" height="29" fill="white"/>
</clipPath>
</defs>
</svg>
