<svg width="75" height="75" viewBox="0 0 75 75" fill="none" xmlns="http://www.w3.org/2000/svg">
<circle cx="37.5" cy="37.5" r="37.5" fill="#F5EDED"/>
<path d="M38 62C24.7665 62 14 51.2335 14 38C14 24.7665 24.7665 14 38 14C51.2335 14 62 24.7665 62 38C62 51.2335 51.2335 62 38 62ZM38 17C26.4205 17 17 26.4205 17 38C17 49.5795 26.4205 59 38 59C49.5795 59 59 49.5795 59 38C59 26.4205 49.5795 17 38 17ZM49.171 48.342C49.912 47.9715 50.2125 47.0705 49.842 46.3295C49.702 46.05 46.3315 39.5 38 39.5C29.6685 39.5 26.298 46.05 26.158 46.329C25.789 47.0675 26.0875 47.9625 26.824 48.335C27.5625 48.7065 28.4615 48.412 28.838 47.6775C28.9465 47.466 31.565 42.5 38 42.5C44.435 42.5 47.0535 47.466 47.158 47.671C47.421 48.197 47.9505 48.501 48.5015 48.5C48.7265 48.5 48.9555 48.4495 49.171 48.342ZM45.5 35C43.8455 35 42.5 33.6545 42.5 32C42.5 30.3455 43.8455 29 45.5 29C47.1545 29 48.5 30.3455 48.5 32C48.5 33.6545 47.1545 35 45.5 35ZM30.5 35C28.8455 35 27.5 33.6545 27.5 32C27.5 30.3455 28.8455 29 30.5 29C32.1545 29 33.5 30.3455 33.5 32C33.5 33.6545 32.1545 35 30.5 35Z" fill="#9F9F9F"/>
</svg>
